<?xml version="1.0" standalone="no"?>
<!DOCTYPE svg PUBLIC "-//W3C//DTD SVG 1.1//EN" "http://www.w3.org/Graphics/SVG/1.1/DTD/svg11.dtd" >
<svg xmlns="http://www.w3.org/2000/svg">
<metadata>Generated by IcoMoon</metadata>
<defs>
<font id="icomoon" horiz-adv-x="1024">
<font-face units-per-em="1024" ascent="960" descent="-64" />
<missing-glyph horiz-adv-x="1024" />
<glyph unicode="&#x20;" horiz-adv-x="512" d="" />
<glyph unicode="&#xe900;" glyph-name="user" horiz-adv-x="922" d="M460.8 294.4c-184.32 0-332.8 148.48-332.8 332.8s148.48 332.8 332.8 332.8 332.8-148.48 332.8-332.8-148.48-332.8-332.8-332.8zM460.8 857.6c-128 0-230.4-102.4-230.4-230.4s102.4-230.4 230.4-230.4 230.4 102.4 230.4 230.4-102.4 230.4-230.4 230.4zM921.6-64h-102.4c0 199.68-158.72 358.4-358.4 358.4s-358.4-158.72-358.4-358.4h-102.4c0 256 204.8 460.8 460.8 460.8s460.8-204.8 460.8-460.8z" />
<glyph unicode="&#xe901;" glyph-name="angle-down" d="M512 270.769c-11.815 0-23.631 3.938-31.508 7.877l-433.231 196.923c-39.385 19.692-59.077 63.015-39.385 102.4s63.015 59.077 102.4 39.385l401.723-181.169 401.723 181.169c39.385 19.692 86.646 0 102.4-39.385 19.692-39.385 0-86.646-39.385-102.4l-433.231-196.923c-7.877-3.938-19.692-7.877-31.508-7.877z" />
<glyph unicode="&#xe902;" glyph-name="angle-left" d="M334.769 448c0 11.815 3.938 23.631 7.877 31.508l196.923 433.231c19.692 39.385 63.015 59.077 102.4 39.385s59.077-63.015 39.385-102.4l-181.169-401.723 181.169-401.723c19.692-39.385 0-86.646-39.385-102.4-39.385-19.692-86.646 0-102.4 39.385l-196.923 433.231c-3.938 7.877-7.877 19.692-7.877 31.508z" />
<glyph unicode="&#xe903;" glyph-name="angle-right" d="M689.231 448c0-11.815-3.938-23.631-7.877-31.508l-196.923-433.231c-19.692-39.385-63.015-59.077-102.4-39.385s-59.077 63.015-39.385 102.4l181.169 401.723-181.169 401.723c-19.692 39.385 0 86.646 39.385 102.4 39.385 19.692 86.646 0 102.4-39.385l196.923-433.231c3.938-7.877 7.877-19.692 7.877-31.508z" />
<glyph unicode="&#xe904;" glyph-name="angle-up" d="M512 625.231c11.815 0 23.631-3.938 31.508-7.877l433.231-196.923c39.385-19.692 59.077-63.015 39.385-102.4s-63.015-59.077-102.4-39.385l-401.723 181.169-401.723-181.169c-39.385-19.692-86.646 0-102.4 39.385-19.692 39.385 0 86.646 39.385 102.4l433.231 196.923c7.877 3.938 19.692 7.877 31.508 7.877z" />
<glyph unicode="&#xe905;" glyph-name="arrow-down" horiz-adv-x="591" d="M251.586 960h88.276v-887.172l189.793 189.793 61.793-61.793-264.828-264.828-30.897 30.897-30.897-30.897-264.828 264.828 61.793 61.793 189.793-189.793z" />
<glyph unicode="&#xe906;" glyph-name="arrow-left" d="M1032.904 483.617v-89.043h-894.887l191.443-191.443-62.33-62.33-267.13 267.13 31.165 31.165-31.165 31.165 267.13 267.13 62.33-62.33-191.443-191.443z" />
<glyph unicode="&#xe907;" glyph-name="arrow-right" d="M0 394.574v89.043h894.887l-191.443 191.443 62.33 62.33 267.13-267.13-31.165-31.165 31.165-31.165-267.13-267.13-62.33 62.33 191.443 191.443z" />
<glyph unicode="&#xe908;" glyph-name="arrow-up" horiz-adv-x="591" d="M339.862-64h-88.276v887.172l-189.793-189.793-61.793 61.793 264.828 264.828 30.897-30.897 30.897 30.897 264.828-264.828-61.793-61.793-189.793 189.793z" />
<glyph unicode="&#xe909;" glyph-name="basket" d="M921.6 48.64h-798.72l-122.88 614.4h266.24l56.32 194.56 97.28-25.6-46.080-168.96h302.080l-46.080 163.84 97.28 30.72 56.32-194.56h266.24l-128-614.4zM204.8 151.040h634.88l81.92 409.6h-112.64l20.48-61.44-97.28-25.6-25.6 92.16h-363.52l-25.6-92.16-97.28 25.6 20.48 61.44h-117.76l81.92-409.6z" />
<glyph unicode="&#xe90a;" glyph-name="check" d="M996.073 820.364l-605.091-549.236c-55.855-55.855-111.709-55.855-167.564 0l-223.418 195.491v-186.182l176.873-158.255c74.473-74.473 186.182-74.473 251.345 0l567.855 512v186.182z" />
<glyph unicode="&#xe90b;" glyph-name="close" d="M955.733-64c-20.48 0-34.133 6.827-47.787 20.48l-395.947 395.947-395.947-395.947c-27.307-27.307-68.267-27.307-95.573 0s-27.307 68.267 0 95.573l395.947 395.947-395.947 395.947c-27.307 27.307-27.307 68.267 0 95.573s68.267 27.307 95.573 0l395.947-395.947 395.947 395.947c27.307 27.307 68.267 27.307 95.573 0s27.307-68.267 0-95.573l-395.947-395.947 395.947-395.947c27.307-27.307 27.307-68.267 0-95.573-13.653-13.653-27.307-20.48-47.787-20.48z" />
<glyph unicode="&#xe90c;" glyph-name="edit" d="M0 147.627v-211.627h211.627l628.053 628.053-211.627 211.627-628.053-628.053zM1010.347 727.893c20.48 20.48 20.48 54.613 0 81.92l-136.533 129.707c-20.48 20.48-61.44 20.48-81.92 0l-102.4-102.4 211.627-211.627 109.227 102.4z" />
<glyph unicode="&#xe90d;" glyph-name="instagram" horiz-adv-x="1029" d="M514.573 707.859c-144.080 0-262.432-118.352-262.432-262.432s118.352-262.432 262.432-262.432c144.080 0 262.432 118.352 262.432 262.432 0 149.226-118.352 262.432-262.432 262.432zM514.573 275.618c-92.623 0-169.809 77.186-169.809 169.809s77.186 169.809 169.809 169.809c92.623 0 169.809-77.186 169.809-169.809s-77.186-169.809-169.809-169.809zM849.045 723.296c0-36.020-25.729-61.749-61.749-61.749s-61.749 25.729-61.749 61.749c0 36.020 25.729 61.749 61.749 61.749 36.020-5.146 61.749-30.874 61.749-61.749zM1024 656.402c-5.146 82.332-20.583 154.372-82.332 216.121s-133.789 77.186-216.121 82.332c-82.332 5.146-339.618 5.146-421.95 0s-154.372-20.583-216.121-82.332c-61.749-56.603-77.186-133.789-82.332-210.975-5.146-87.477-5.146-339.618 0-427.095 5.146-82.332 20.583-154.372 82.332-216.121s133.789-77.186 216.121-82.332c87.477-5.146 339.618-5.146 421.95 0s154.372 20.583 216.121 82.332c61.749 61.749 77.186 133.789 82.332 216.121 5.146 87.477 5.146 339.618 0 421.95zM915.94 146.975c-15.437-46.312-51.457-77.186-97.769-97.769-66.894-25.729-226.412-20.583-303.598-20.583s-236.704-5.146-303.598 20.583c-46.312 15.437-77.186 51.457-97.769 97.769-25.729 66.894-20.583 226.412-20.583 303.598 0 72.040-5.146 236.704 20.583 303.598 15.437 46.312 51.457 77.186 97.769 97.769 66.894 20.583 226.412 15.437 303.598 15.437s236.704 5.146 303.598-20.583c46.312-15.437 77.186-51.457 97.769-97.769 25.729-66.894 20.583-226.412 20.583-303.598 0-72.040 5.146-231.558-20.583-298.452z" />
<glyph unicode="&#xe90e;" glyph-name="phone" d="M204.8 516.267c79.644-159.289 216.178-290.133 375.467-375.467l125.156 125.156c17.067 17.067 39.822 22.756 56.889 17.067 62.578-22.756 130.844-34.133 204.8-34.133 17.067 0 28.444-5.689 39.822-17.067s17.067-22.756 17.067-39.822v-199.111c0-17.067-5.689-28.444-17.067-39.822s-22.756-17.067-39.822-17.067c-256 0-500.622 102.4-682.667 284.444s-284.444 426.667-284.444 682.667c0 17.067 5.689 28.444 17.067 39.822s22.756 17.067 39.822 17.067h199.111c17.067 0 28.444-5.689 39.822-17.067s17.067-22.756 17.067-39.822c0-73.956 11.378-142.222 34.133-204.8 5.689-17.067 0-39.822-17.067-56.889l-125.156-125.156z" />
<glyph unicode="&#xe90f;" glyph-name="zoom" d="M733.94 313.957h-48.343l-17.579 17.579c57.133 65.923 92.292 153.82 92.292 246.112 0 210.953-171.399 382.352-382.352 382.352-206.558 0-377.957-171.399-377.957-382.352s171.399-382.352 382.352-382.352c92.292 0 180.189 35.159 246.112 92.292l17.579-17.579v-48.343l294.455-294.455 87.897 87.897-294.455 298.85zM382.352 313.957c-145.030 0-263.691 118.661-263.691 263.691s118.661 263.691 263.691 263.691c145.030 0 263.691-118.661 263.691-263.691s-118.661-263.691-263.691-263.691zM527.382 551.279h-118.661v-118.661h-57.133v118.661h-118.661v57.133h118.661v118.661h57.133v-118.661h118.661v-57.133z" />
<glyph unicode="&#xe910;" glyph-name="angle-2-down" horiz-adv-x="1661" d="M1660.541 766.27l-193.73 193.73-636.541-636.541-636.541 636.541-193.73-193.73 830.27-830.27 830.27 830.27z" />
<glyph unicode="&#xe911;" glyph-name="angle-2-left" horiz-adv-x="631" d="M512-64l119.467 119.467-392.533 392.533 392.533 392.533-119.467 119.467-512-512 512-512z" />
<glyph unicode="&#xe912;" glyph-name="angle-2-right" horiz-adv-x="631" d="M119.467 960l-119.467-119.467 392.533-392.533-392.533-392.533 119.467-119.467 512 512-512 512z" />
<glyph unicode="&#xe913;" glyph-name="angle-2-up" horiz-adv-x="1661" d="M0 129.73l193.73-193.73 636.541 636.541 636.541-636.541 193.73 193.73-830.27 830.27-830.27-830.27z" />
</font>
</defs>
</svg>
